<svg width="60px" height="60px" class="PaymentMethodsstyles__StyledIcon-jtzizl-2 jjgwUW" viewBox="0 0 48 30"><g stroke="none" stroke-width="1" fill="none" fill-rule="evenodd"><g transform="translate(-1447.000000, -950.000000)" fill="#0070CF" fill-rule="nonzero"><g transform="translate(1447.000000, 950.000000)"><g><path d="M47.991671,15.9517857 C44.8349818,15.9357143 44.3102551,15.8794643 43.4523686,16.3535714 L43.4523686,15.9517857 C39.6793337,15.9517857 38.9963561,15.8151786 38.0468506,16.3696429 L38.0468506,15.9517857 L31.5335763,15.9517857 L31.5335763,16.3616071 C30.5840708,15.8392857 29.7511713,15.9517857 25.2285268,15.9517857 L25.2285268,16.4017857 C24.7038001,16.1044643 24.0208225,15.9517857 23.2045809,15.9517857 L18.3737637,15.9517857 C18.0822488,16.2571429 17.3326393,17.0526786 17.0661114,17.3339286 C16.008329,16.2008929 16.1915669,16.4017857 15.7751171,15.9517857 L8.85372202,15.9517857 L8.85372202,23.36875 L15.6834982,23.36875 C15.958355,23.0875 16.7579386,22.2517857 17.0244664,21.9705357 C18.0822488,23.1196429 17.8823529,22.9107143 18.3071317,23.36875 L22.3800104,23.36875 C22.3800104,22.1875 22.3883394,22.7017857 22.3883394,21.5205357 C23.3461739,21.5366071 24.4122853,21.5044643 25.2451848,21.0223214 C25.2451848,22.1392857 25.2368558,22.3964286 25.2368558,23.36875 L28.5351379,23.36875 C28.5351379,21.8821429 28.5434669,22.7741071 28.5434669,21.3357143 C29.0598647,21.3357143 29.1847996,21.3357143 29.3263925,21.34375 C29.3347215,21.4482143 29.3263925,21.34375 29.3263925,23.36875 C42.0530973,23.36875 41.4783967,23.4571429 42.3779282,23.0071429 L42.3779282,23.36875 C45.2764185,23.36875 46.9422176,23.5455357 48,22.8785714 L48,26.1428571 C48,28.2723214 46.209266,30 44.0020822,30 L4.01457574,30 C1.80739198,30 0.0166579906,28.2723214 0.0166579906,26.1428571 L0.0166579906,13.7741071 L2.23217074,13.7741071 C2.58198855,12.9625 2.41540864,13.3482143 2.76522644,12.5446429 L4.36439355,12.5446429 C4.71421135,13.3482143 4.54763144,12.9625 4.89744925,13.7741071 L9.30348777,13.7741071 L9.30348777,12.8580357 C9.48672566,13.2598214 9.39510672,13.0589286 9.72826653,13.7741071 L12.1853201,13.7741071 C12.385216,13.3321429 12.401874,13.3080357 12.6100989,12.8580357 L12.6100989,13.7741071 L23.8958876,13.7741071 L23.8958876,11.7571429 C24.4289433,11.7571429 24.5622072,11.7491071 24.7121291,11.7732143 C24.7121291,11.7732143 24.6954711,12.6491071 24.7204581,13.7660714 L30.25924,13.7660714 L30.25924,13.0508929 C30.8755856,13.525 31.7084852,13.7660714 32.7329516,13.7660714 L34.9651223,13.7660714 C35.3149401,12.9544643 35.1483602,13.3401786 35.498178,12.5366071 L37.0806871,12.5366071 C37.6220718,13.7419643 37.0973451,12.5767857 37.6304008,13.7660714 L42.0281104,13.7660714 L42.0281104,12.00625 C43.0109318,13.5892857 42.677772,13.0428571 43.1275377,13.7660714 L46.5923998,13.7660714 L46.5923998,6.37321429 L43.2691307,6.37321429 L43.2691307,7.85178571 C42.2529932,6.22857143 42.744404,7.01607143 42.3362832,6.37321429 L38.7298282,6.37321429 L38.7298282,8.02857143 C38.2134305,6.85535714 38.3466944,7.16071429 37.9968766,6.37321429 L35.2982821,6.37321429 C35.2649662,6.37321429 35.1067153,6.38928571 35.1067153,6.34910714 L32.8079125,6.34910714 C31.7418011,6.34910714 30.8839146,6.60625 30.250911,7.09642857 L30.250911,6.34910714 L26.9276419,6.34910714 L26.9276419,6.775 C26.0281104,6.28482143 25.2035398,6.36517857 21.5637689,6.34910714 C21.5554399,6.34910714 20.5976054,6.34107143 20.5976054,6.34910714 L12.0187402,6.34910714 C11.8105154,6.83928571 11.4523686,7.66696429 10.9692868,8.75982143 C10.736075,8.27767857 10.0530973,6.84732143 9.81155648,6.34910714 L5.98021864,6.34910714 L5.98021864,8.04464286 C5.36387298,6.64642857 5.58875586,7.16071429 5.23060906,6.34910714 L1.92399792,6.34910714 C1.64081208,6.98392857 0.78292556,8.92053571 0,10.6803571 L0,3.85714286 C0,1.72767857 1.79073399,1.13686838e-13 3.99791775,1.13686838e-13 L43.9770953,1.13686838e-13 C46.184279,1.13686838e-13 47.975013,1.72767857 47.975013,3.85714286 L47.975013,15.9517857 L47.991671,15.9517857 Z M32.4497657,9.475 C32.4247788,9.49107143 32.3331598,9.65178571 32.3331598,10.0857143 C32.3331598,10.5678571 32.4081208,10.7044643 32.4247788,10.7205357 C32.4414368,10.7285714 32.5163977,10.7607143 32.7079646,10.7607143 L33.3159813,9.40267857 C33.2243623,9.40267857 33.1410724,9.39464286 33.0577824,9.39464286 C32.5913587,9.39464286 32.4747527,9.45089286 32.4497657,9.475 Z M30.7922957,19.99375 C31.5585632,20.2589286 31.7084852,20.7571429 31.7084852,21.4723214 L31.7001562,22.58125 L30.3175429,22.58125 L30.3258719,21.6571429 C30.3258719,20.7089286 30.0093701,20.5482143 29.0931806,20.5482143 L27.6272775,20.5482143 L27.6189485,22.58125 L26.2363352,22.58125 L26.2446642,17.0125 L29.5262884,17.0125 C30.6090578,17.0125 31.7834461,17.1973214 31.7834461,18.5151786 C31.7751171,19.1258929 31.4336283,19.7446429 30.7922957,19.99375 L30.7922957,19.99375 Z M30.267569,18.75625 C30.267569,18.2419643 29.8011452,18.1616071 29.3763665,18.1616071 L27.6272775,18.1616071 L27.6272775,19.4151786 L29.3513795,19.4151786 C29.8178032,19.4151786 30.267569,19.3107143 30.267569,18.75625 L30.267569,18.75625 Z M45.4013535,18.1857143 L47.9083811,18.1857143 L47.9083811,17.0125 L45.1681416,17.0125 C44.1020302,17.0125 43.1858407,17.5428571 43.1858407,18.6758929 C43.1858407,21.3276786 46.7423217,19.7044643 46.7423217,20.8776786 C46.7423217,21.2875 46.3841749,21.3919643 46.0426861,21.3919643 L43.3774076,21.3919643 L43.3690786,22.58125 L46.0343571,22.58125 C46.7339927,22.58125 47.5002603,22.4366071 47.9083811,21.8660714 L47.9083811,19.7928571 C47.0338365,18.6839286 44.6350859,19.6883929 44.6350859,18.7080357 C44.6350859,18.2419643 45.0182197,18.1857143 45.4013535,18.1857143 L45.4013535,18.1857143 Z M37.1389901,18.1616071 L37.1389901,17.0125 L32.5413847,17.0125 L32.5330557,22.58125 L37.1306611,22.58125 L37.1389901,21.4321429 L33.9239979,21.4080357 L33.9239979,20.2991071 L37.0806871,20.2991071 L37.0806871,19.1660714 L33.9323269,19.1660714 L33.9323269,18.1616071 L37.1389901,18.1616071 L37.1389901,18.1616071 Z M40.6538261,21.3839286 L37.9718896,21.3839286 L37.9635606,22.5732143 L40.6454971,22.5732143 C41.8781884,22.5732143 42.8276939,22.1232143 42.8276939,20.8053571 C42.8276939,18.1375 39.2545549,19.9053571 39.2545549,18.6919643 C39.2545549,18.2419643 39.6626757,18.1776786 40.0208225,18.1776786 L42.5528371,18.1776786 L42.5528371,17.0044643 L39.7876106,17.0044643 C38.7214992,17.0044643 37.8302967,17.5348214 37.8302967,18.6678571 C37.8302967,21.3196429 41.3867777,19.6723214 41.3867777,20.8696429 C41.3784487,21.3035714 40.9953149,21.3839286 40.6538261,21.3839286 L40.6538261,21.3839286 Z M34.1488808,8.63125 C32.6996356,8.60714286 31.3836543,8.30178571 31.3836543,10.2142857 C31.3836543,11.1625 31.6168662,11.8133929 32.7246226,11.8133929 L33.3409682,11.8133929 L35.2982821,7.43392857 L37.363873,7.43392857 L39.6876627,12.6892857 L39.6876627,7.43392857 L41.7948985,7.43392857 L44.2186361,11.2991071 L44.2186361,7.43392857 L45.6262363,7.43392857 L45.6262363,12.9785714 L43.6605934,12.9785714 L41.0619469,8.80803571 L41.0619469,12.9785714 L38.2550755,12.9785714 L37.7053618,11.7491071 L34.8485164,11.7491071 L34.3154607,12.9785714 L32.7162936,12.9785714 C30.8172827,12.9785714 29.9677251,12.0303571 29.9677251,10.2464286 C29.9677251,8.37410714 30.8422697,7.40982143 32.7995836,7.40982143 L34.1405518,7.40982143 L34.1405518,8.63125 L34.1488808,8.63125 Z M35.3399271,10.6 L37.2389381,10.6 L36.3060906,8.38214286 L35.3399271,10.6 Z M29.2930765,7.41785714 L27.8854763,7.41785714 L27.8854763,12.9866071 L29.2930765,12.9866071 L29.2930765,7.41785714 L29.2930765,7.41785714 Z M26.1197293,10.4151786 C26.9109839,10.6803571 27.0359188,11.1544643 27.0359188,11.89375 L27.0359188,12.9785714 L25.6533056,12.9785714 C25.6283186,11.7892857 25.9531494,10.9616071 24.4206143,10.9616071 L22.9213951,10.9616071 L22.9213951,12.9785714 L21.5554399,12.9785714 L21.5554399,7.40982143 L24.812077,7.43392857 C25.9198334,7.43392857 27.0942218,7.59464286 27.0942218,8.9125 C27.1025508,9.55535714 26.736075,10.1741071 26.1197293,10.4151786 L26.1197293,10.4151786 Z M25.5616866,9.18571429 C25.5616866,8.67142857 25.0952629,8.59107143 24.6704841,8.59107143 L22.9213951,8.59107143 L22.9213951,9.82053571 L24.6454971,9.82053571 C25.1202499,9.82053571 25.5616866,9.71607143 25.5616866,9.18571429 Z M20.6059344,8.59107143 L20.6059344,7.41785714 L15.983342,7.41785714 L15.983342,12.9866071 L20.6059344,12.9866071 L20.6059344,11.8375 L17.3659552,11.8375 L17.3659552,10.7285714 L20.5143155,10.7285714 L20.5143155,9.59553571 L17.3659552,9.59553571 L17.3659552,8.59107143 L20.6059344,8.59107143 Z M13.5596044,12.9866071 L13.5596044,8.63125 L11.5606455,12.9866071 L10.3446122,12.9866071 L8.34565331,8.63125 L8.34565331,12.9866071 L5.53045289,12.9866071 L4.99739719,11.7571429 L2.12389381,11.7571429 L1.59083811,12.9866071 L0.0999479438,12.9866071 L2.57365955,7.41785714 L4.6142634,7.41785714 L6.95471109,12.6973214 L6.95471109,7.41785714 L9.21186882,7.41785714 L11.0192608,11.1946429 L12.6600729,7.41785714 L14.9588756,7.41785714 L14.9588756,12.9866071 L13.5596044,12.9866071 L13.5596044,12.9866071 Z M4.50598647,10.6 L3.548152,8.38214286 L2.61530453,10.6 L4.50598647,10.6 Z M25.5783446,18.8366071 C25.5783446,21.0785714 23.04633,20.7089286 21.4721499,20.7089286 L21.4638209,22.58125 L18.7818844,22.58125 L17.0827694,20.7330357 L15.3086934,22.58125 L9.86153045,22.58125 L9.86985945,17.0125 L15.4086413,17.0125 L17.1160854,18.8446429 L18.8651744,17.0125 L23.2545549,17.0125 C24.5538782,17.0125 25.5783446,17.4464286 25.5783446,18.8366071 Z M16.1915669,19.7848214 L14.7006767,18.1616071 L11.2274857,18.1616071 L11.2274857,19.1660714 L14.250911,19.1660714 L14.250911,20.2991071 L11.2274857,20.2991071 L11.2274857,21.4080357 L14.6090578,21.4080357 L16.1915669,19.7848214 L16.1915669,19.7848214 Z M20.0895367,17.6071429 L17.9823009,19.8089286 L20.0895367,22.0669643 L20.0895367,17.6071429 Z M24.1124414,18.8366071 C24.1124414,18.3464286 23.7293077,18.1616071 23.2628839,18.1616071 L21.4721499,18.1616071 L21.4721499,19.5758929 L23.2378969,19.5758929 C23.7293077,19.5758929 24.1124414,19.3508929 24.1124414,18.8366071 L24.1124414,18.8366071 Z"></path></g></g></g></g></svg>