<svg width="60px" height="60px" class="PaymentMethodsstyles__StyledIcon-jtzizl-2 jjgwUW" viewBox="0 0 50 32"><g stroke="none" stroke-width="1" fill="none" fill-rule="evenodd"><g transform="translate(-1270.000000, -949.000000)" fill-rule="nonzero"><g transform="translate(1271.000000, 950.000000)"><path d="M46.2182857,29.9396226 L1.61980952,29.9396226 C0.728952381,29.9396226 0,29.2175472 0,28.3350943 L0,1.6045283 C0,0.722075472 0.728952381,0 1.61980952,0 L46.2182857,0 C47.1091429,0 47.8380952,0.722075472 47.8380952,1.6045283 L47.8380952,28.3350943 C47.8380952,29.2175472 47.1091429,29.9396226 46.2182857,29.9396226 Z" stroke="#009EE3" fill="#FFFFFF"></path><g transform="translate(4.000000, 10.000000)"><path d="M14.9067742,2.17709677 L12.7006452,2.17709677 C12.5497549,2.1770016 12.421249,2.28675846 12.3977419,2.43580645 L11.5054839,8.09290323 C11.4971824,8.14602904 11.5125517,8.20012655 11.5475451,8.24095216 C11.5825384,8.28177777 11.6336489,8.30523997 11.6874194,8.30516129 L12.7406452,8.30516129 C12.8916399,8.30523155 13.0201839,8.19530521 13.0435484,8.04612903 L13.2841935,6.52032258 C13.3075391,6.37126712 13.4359016,6.26137893 13.5867742,6.26129032 L14.2851613,6.26129032 C15.7383871,6.26129032 16.5770968,5.55806452 16.796129,4.16451613 C16.8948387,3.55483871 16.8003226,3.07580645 16.5148387,2.74032258 C16.2012903,2.37193548 15.6451613,2.17709677 14.9067742,2.17709677 L14.9067742,2.17709677 Z M15.1612903,4.24322581 C15.0406452,5.03483871 14.4358065,5.03483871 13.8509677,5.03483871 L13.5180645,5.03483871 L13.7516129,3.55645161 C13.7657381,3.46709674 13.8427614,3.40129173 13.9332258,3.40129032 L14.0858065,3.40129032 C14.4841935,3.40129032 14.86,3.40129032 15.0541935,3.6283871 C15.17,3.76387097 15.2054839,3.96516129 15.1612903,4.24322581 L15.1612903,4.24322581 Z M21.5012903,4.21774194 L20.4448387,4.21774194 C20.3543743,4.21774334 20.277351,4.28354836 20.2632258,4.37290323 L20.2164516,4.6683871 L20.1425806,4.56129032 C19.913871,4.22935484 19.403871,4.1183871 18.8948387,4.1183871 C17.7274194,4.1183871 16.7303226,5.00258065 16.536129,6.24290323 C16.4351613,6.8616129 16.5787097,7.45322581 16.9296774,7.86580645 C17.2516129,8.24516129 17.7122581,8.40322581 18.2603226,8.40322581 C19.2009677,8.40322581 19.7225806,7.7983871 19.7225806,7.7983871 L19.6754839,8.09193548 C19.6669907,8.14505045 19.6821817,8.19922092 19.7170545,8.24017478 C19.7519274,8.28112865 19.8029845,8.30475852 19.8567742,8.30483871 L20.8083871,8.30483871 C20.9593819,8.30490897 21.0879259,8.19498263 21.1112903,8.04580645 L21.6822581,4.43 C21.6907632,4.37700151 21.6756008,4.32293901 21.640776,4.28209283 C21.6059512,4.24124665 21.5549669,4.21772534 21.5012903,4.21774194 L21.5012903,4.21774194 Z M20.0287097,6.27387097 C19.9267742,6.87741935 19.4477419,7.28258065 18.8367742,7.28258065 C18.53,7.28258065 18.2848387,7.18419355 18.1274194,6.99774194 C17.9712903,6.81258065 17.9119355,6.54903226 17.9616129,6.25548387 C18.0567742,5.65709677 18.543871,5.23870968 19.1454839,5.23870968 C19.4454839,5.23870968 19.6893548,5.3383871 19.85,5.52645161 C20.0109677,5.71645161 20.0748387,5.9816129 20.0287097,6.27387097 L20.0287097,6.27387097 Z M27.1277419,4.21774194 L26.066129,4.21774194 C25.9644834,4.21790284 25.8694737,4.2682447 25.8122581,4.35225806 L24.3480645,6.50903226 L23.7274194,4.43645161 C23.6883019,4.30665838 23.5687856,4.21780743 23.4332258,4.21774194 L22.39,4.21774194 C22.3305845,4.21758394 22.2747546,4.24614615 22.240117,4.29442104 C22.2054795,4.34269594 22.1963039,4.40473294 22.2154839,4.46096774 L23.3848387,7.89258065 L22.2854839,9.44451613 C22.2456541,9.50061064 22.2404709,9.57424734 22.2720501,9.63536822 C22.3036292,9.6964891 22.3666871,9.73486792 22.4354839,9.73483871 L23.4958065,9.73483871 C23.5962965,9.73497712 23.6904552,9.68578792 23.7477419,9.60322581 L27.2787097,4.50645161 C27.3177171,4.45024869 27.3222958,4.37703613 27.2905947,4.31641114 C27.2588936,4.25578614 27.196155,4.21777411 27.1277419,4.21774194 L27.1277419,4.21774194 Z" fill="#253B80"></path><path d="M30.6425806,2.17709677 L28.436129,2.17709677 C28.2853609,2.17716038 28.1570365,2.28687916 28.1335484,2.43580645 L27.2412903,8.09290323 C27.2328916,8.14593758 27.2481369,8.19999013 27.2830098,8.24081987 C27.3178826,8.28164962 27.3688854,8.30516163 27.4225806,8.30516129 L28.5548387,8.30516129 C28.6603657,8.30500657 28.7501069,8.22812463 28.7664516,8.12387097 L29.0196774,6.52032258 C29.0430229,6.37126712 29.1713855,6.26137893 29.3222581,6.26129032 L30.0203226,6.26129032 C31.473871,6.26129032 32.3122581,5.55806452 32.5316129,4.16451613 C32.6306452,3.55483871 32.5354839,3.07580645 32.25,2.74032258 C31.9367742,2.37193548 31.3809677,2.17709677 30.6425806,2.17709677 L30.6425806,2.17709677 Z M30.8970968,4.24322581 C30.7767742,5.03483871 30.1719355,5.03483871 29.5867742,5.03483871 L29.2541935,5.03483871 L29.4880645,3.55645161 C29.5019175,3.46707607 29.5789122,3.40117849 29.6693548,3.40129032 L29.8219355,3.40129032 C30.22,3.40129032 30.596129,3.40129032 30.7903226,3.6283871 C30.906129,3.76387097 30.9412903,3.96516129 30.8970968,4.24322581 L30.8970968,4.24322581 Z M37.2367742,4.21774194 L36.1809677,4.21774194 C36.0904746,4.21749301 36.0134027,4.28345662 35.9996774,4.37290323 L35.9529032,4.6683871 L35.8787097,4.56129032 C35.65,4.22935484 35.1403226,4.1183871 34.6312903,4.1183871 C33.463871,4.1183871 32.4670968,5.00258065 32.2729032,6.24290323 C32.1722581,6.8616129 32.3151613,7.45322581 32.666129,7.86580645 C32.9887097,8.24516129 33.4487097,8.40322581 33.9967742,8.40322581 C34.9374194,8.40322581 35.4590323,7.7983871 35.4590323,7.7983871 L35.4119355,8.09193548 C35.4034245,8.14516178 35.4186976,8.19944197 35.4537154,8.24042032 C35.4887333,8.28139867 35.5399686,8.30494749 35.593871,8.30483871 L36.5451613,8.30483871 C36.6960339,8.3047501 36.8243964,8.19486191 36.8477419,8.04580645 L37.4190323,4.43 C37.4272279,4.37683854 37.411776,4.32275077 37.3767345,4.2819414 C37.341693,4.24113203 37.2905637,4.21767912 37.2367742,4.21774194 L37.2367742,4.21774194 Z M35.7641935,6.27387097 C35.6629032,6.87741935 35.1832258,7.28258065 34.5722581,7.28258065 C34.266129,7.28258065 34.0203226,7.18419355 33.8629032,6.99774194 C33.7067742,6.81258065 33.6480645,6.54903226 33.6970968,6.25548387 C33.7929032,5.65709677 34.2793548,5.23870968 34.8809677,5.23870968 C35.1809677,5.23870968 35.4248387,5.3383871 35.5854839,5.52645161 C35.7470968,5.71645161 35.8109677,5.9816129 35.7641935,6.27387097 L35.7641935,6.27387097 Z M38.4822581,2.33225806 L37.5767742,8.09290323 C37.5683755,8.14593758 37.5836208,8.19999013 37.6184936,8.24081987 C37.6533665,8.28164962 37.7043693,8.30516163 37.7580645,8.30516129 L38.6683871,8.30516129 C38.8196774,8.30516129 38.9480645,8.19548387 38.9712903,8.04612903 L39.8641935,2.38935484 C39.8725821,2.33629006 39.857343,2.28221081 39.8224823,2.24133328 C39.7876217,2.20045574 39.7366269,2.17686927 39.6829032,2.17677419 L38.6635484,2.17677419 C38.5731519,2.17709428 38.4963474,2.24296576 38.4822581,2.33225806 L38.4822581,2.33225806 Z" fill="#179BD7"></path><path d="M2.34387097,9.40451613 L2.51258065,8.33290323 L2.13677419,8.32419355 L0.342258065,8.32419355 L1.58935484,0.416774194 C1.59702851,0.366837391 1.6401229,0.330056189 1.69064516,0.330322581 L4.71645161,0.330322581 C5.72096774,0.330322581 6.41419355,0.539354839 6.77612903,0.951935484 C6.94580645,1.14548387 7.05387097,1.34774194 7.10612903,1.57032258 C7.16096774,1.80387097 7.16193548,2.08290323 7.1083871,2.42322581 L7.10451613,2.44806452 L7.10451613,2.66612903 L7.27419355,2.76225806 C7.40372808,2.82788389 7.52016148,2.91665752 7.61774194,3.02419355 C7.76290323,3.18967742 7.85677419,3.4 7.89645161,3.64935484 C7.93741935,3.90580645 7.92387097,4.21096774 7.85677419,4.55645161 C7.77935484,4.95387097 7.65419355,5.3 7.48516129,5.58322581 C7.33602189,5.83695045 7.13549804,6.05670261 6.89645161,6.2283871 C6.67193548,6.38774194 6.40516129,6.50870968 6.10354839,6.58612903 C5.81129032,6.66225806 5.47806452,6.70064516 5.11258065,6.70064516 L4.87709677,6.70064516 C4.70870968,6.70064516 4.54516129,6.76129032 4.41677419,6.87 C4.28856912,6.97986963 4.20352081,7.13167629 4.17677419,7.2983871 L4.15903226,7.39483871 L3.86096774,9.28354839 L3.84741935,9.35290323 C3.84387097,9.37483871 3.83774194,9.38580645 3.82870968,9.39322581 C3.81995998,9.40038137 3.80904394,9.40436118 3.79774194,9.40451613 L2.34387097,9.40451613 Z" fill="#253B80"></path><path d="M7.43483871,2.47322581 C7.42580645,2.53096774 7.41548387,2.59 7.40387097,2.65064516 C7.00483871,4.69935484 5.63967742,5.40709677 3.89612903,5.40709677 L3.0083871,5.40709677 C2.79516129,5.40709677 2.61548387,5.56193548 2.58225806,5.77225806 L2.12774194,8.65483871 L1.99903226,9.47193548 C1.98865598,9.53752798 2.00751006,9.60437579 2.05063075,9.65487974 C2.09375145,9.70538369 2.15681766,9.73448282 2.22322581,9.73451613 L3.79774194,9.73451613 C3.98419355,9.73451613 4.14258065,9.59903226 4.17193548,9.41516129 L4.18741935,9.33516129 L4.48387097,7.45387097 L4.50290323,7.35064516 C4.53193548,7.16612903 4.69064516,7.03064516 4.87709677,7.03064516 L5.11258065,7.03064516 C6.63806452,7.03064516 7.83225806,6.41129032 8.18129032,4.61903226 C8.32709677,3.87032258 8.2516129,3.24516129 7.86580645,2.80548387 C7.74352588,2.66947195 7.59748466,2.5568803 7.43483871,2.47322581 L7.43483871,2.47322581 Z" fill="#179BD7"></path><path d="M7.01741935,2.30677419 C6.89000851,2.26991651 6.76039524,2.24114948 6.62935484,2.22064516 C6.37042579,2.18085221 6.10873704,2.16175951 5.84677419,2.16354839 L3.47516129,2.16354839 C3.28867026,2.16340439 3.12993224,2.29926989 3.10129032,2.48354839 L2.59677419,5.67903226 L2.58225806,5.77225806 C2.61473456,5.56206278 2.79569773,5.40699064 3.0083871,5.40709677 L3.89612903,5.40709677 C5.63967742,5.40709677 7.00483871,4.69903226 7.40387097,2.65064516 C7.41580645,2.59 7.42580645,2.53096774 7.43483871,2.47322581 C7.32954364,2.41800922 7.21980444,2.37171805 7.10677419,2.33483871 C7.07714132,2.3250064 7.04735254,2.31565036 7.01741935,2.30677419 L7.01741935,2.30677419 Z" fill="#222D65"></path><path d="M3.10129032,2.48354839 C3.12969305,2.299185 3.28862379,2.16329167 3.47516129,2.16387097 L5.84677419,2.16387097 C6.12774194,2.16387097 6.39,2.18225806 6.62935484,2.22096774 C6.791325,2.2464233 6.95105848,2.28449617 7.10709677,2.33483871 C7.22483871,2.37387097 7.33419355,2.42 7.43516129,2.47322581 C7.55387097,1.71612903 7.43419355,1.20064516 7.02483871,0.733870968 C6.57354839,0.22 5.75903226,0 4.71677419,0 L1.69096774,0 C1.47806452,0 1.29645161,0.15483871 1.26354839,0.365483871 L0.00322580645,8.35419355 C-0.00865433368,8.42925394 0.0128998366,8.50575472 0.0622184758,8.56357229 C0.111537115,8.62138987 0.183682752,8.65473591 0.259677419,8.65483871 L2.12774194,8.65483871 L2.59677419,5.67903226 L3.10129032,2.48354839 Z" fill="#253B80"></path></g></g></g></g></svg>