<svg width="17px" height="22px" viewBox="0 0 17 22"><g fill="#006DB7" fill-rule="evenodd"><path d="M.773 5.5h15.454A.762.762 0 0 0 17 4.75a.762.762 0 0 0-.773-.75H.773A.762.762 0 0 0 0 4.75c0 .414.346.75.773.75z"></path><path d="M5.744 4l.378-1.43c.08-.307.448-.607.742-.607h3.272c.294 0 .661.3.742.606L11.256 4 13 4.46l-.378-1.43C12.32 1.88 11.24.673 10.136.673H6.864C5.76.673 4.681 1.881 4.378 3.03L4 4.46 5.744 4z"></path><path d="M14.47 4.734l-.567 15.257a.515.515 0 0 1-.505.484H3.602a.516.516 0 0 1-.505-.484L2.53 4.734a.764.764 0 0 0-.793-.733.764.764 0 0 0-.736.79l.567 15.256A2.044 2.044 0 0 0 3.602 22h9.796c1.086 0 1.994-.87 2.034-1.953L16 4.791a.764.764 0 0 0-.736-.79.764.764 0 0 0-.793.733z"></path><path d="M8 8.532v8.945c0 .29.224.526.5.526s.5-.235.5-.526V8.532a.514.514 0 0 0-.5-.526c-.276 0-.5.236-.5.526zm3-.006v8.948c0 .29.224.526.5.526s.5-.236.5-.526V8.526A.514.514 0 0 0 11.5 8c-.276 0-.5.236-.5.526zm-6 0v8.948c0 .29.224.526.5.526s.5-.236.5-.526V8.526A.514.514 0 0 0 5.5 8c-.276 0-.5.236-.5.526z"></path></g></svg>