<svg width="60px" height="60px" class="PaymentMethodsstyles__StyledIcon-jtzizl-2 jjgwUW" viewBox="0 0 48 30"><g stroke="none" stroke-width="1" fill="none" fill-rule="evenodd"><g transform="translate(-1095.000000, -950.000000)" fill-rule="nonzero"><g transform="translate(1095.000000, 950.000000)"><g><rect fill="#0E4595" x="0" y="0" width="48" height="30" rx="2.56"></rect><polygon fill="#FFFFFF" points="17.804608 21.2884076 19.939648 8.81942675 23.354688 8.81942675 21.218176 21.2884076 17.804608 21.2884076"></polygon><path d="M33.555712,9.08840764 C32.879104,8.83579618 31.818944,8.56471338 30.49504,8.56471338 C27.12064,8.56471338 24.74368,10.2557962 24.72352,12.6795541 C24.704448,14.4712739 26.420352,15.4706369 27.715712,16.0671338 C29.044992,16.6782166 29.49184,17.0680255 29.485568,17.6138217 C29.47712,18.4494904 28.424,18.8314013 27.442496,18.8314013 C26.075584,18.8314013 25.34944,18.6424841 24.227904,18.176879 L23.787904,17.9787898 L23.308544,20.7700637 C24.10624,21.1181529 25.581184,21.4197452 27.112576,21.4353503 C30.702336,21.4353503 33.032576,19.7635032 33.0592,17.1752866 C33.072128,15.7569427 32.162304,14.6774522 30.192128,13.7875159 C28.998464,13.2107643 28.267392,12.8257325 28.2752,12.2417834 C28.2752,11.7235032 28.893888,11.169172 30.230784,11.169172 C31.347584,11.1519745 32.156544,11.3943949 32.786752,11.646879 L33.092672,11.790828 L33.555712,9.08828025" fill="#FFFFFF"></path><path d="M42.34336,8.81942675 L39.70464,8.81942675 C38.887104,8.81942675 38.275392,9.04152866 37.916352,9.85343949 L32.844672,21.2803822 L36.430592,21.2803822 C36.430592,21.2803822 37.017024,19.7438854 37.149632,19.4066242 C37.541504,19.4066242 41.025024,19.4119745 41.523136,19.4119745 C41.625216,19.8484076 41.938496,21.2803185 41.938496,21.2803185 L45.107328,21.2803822 L42.343296,8.81929936 L42.34336,8.81942675 Z M38.156608,16.870828 C38.43904,16.1523567 39.517248,13.3852866 39.517248,13.3852866 C39.497024,13.4184076 39.797568,12.6633121 39.970048,12.1951592 L40.200832,13.2703185 C40.200832,13.2703185 40.85472,16.2465605 40.99136,16.8707643 L38.156608,16.8707643 L38.156608,16.870828 Z" fill="#FFFFFF"></path><path d="M14.905792,8.81942675 L11.562432,17.3223567 L11.206144,15.5944586 C10.583744,13.6024841 8.644544,11.4443949 6.476672,10.3638854 L9.533696,21.2685987 L13.14688,21.2644586 L18.523136,8.81955414 L14.905856,8.81955414" fill="#FFFFFF"></path><path d="M8.44288,8.81942675 L2.93632,8.81942675 L2.892608,9.0788535 C7.176768,10.1109554 10.011456,12.6051592 11.18816,15.6020382 L9.990848,9.87210191 C9.784128,9.08261146 9.184448,8.84700637 8.442816,8.81949045" fill="#F2AE14"></path></g></g></g></g></svg>